<svg id="Layer_1" data-name="Layer 1" xmlns="http://www.w3.org/2000/svg" viewBox="0 0 699.91 33.52"><defs><style>.cls-1{fill:#fff;}.cls-2{fill:#fcaf17;}</style></defs><title>menu-bg</title><path class="cls-1" d="M681.39,33.52c5.94,0,7.54,0,13.78-10a80.58,80.58,0,0,1,4.74-6.78A79.43,79.43,0,0,1,695.17,10c-6.25-10-7.84-10-13.78-10H18.53C12.59,0,11,0,4.75,10A79.76,79.76,0,0,1,0,16.76a79.89,79.89,0,0,1,4.75,6.78c6.24,10,7.84,10,13.78,10H681.39Z"/><path class="cls-2" d="M681.39,4.5c4.76,0,5,0,10,7.86,0.94,1.5,1.92,3,2.94,4.4-1,1.42-2,2.89-2.94,4.39-4.93,7.87-5.21,7.87-10,7.87H18.53c-4.76,0-5,0-10-7.87-0.94-1.5-1.93-3-2.94-4.39,1-1.43,2-2.91,2.94-4.4,4.92-7.86,5.21-7.86,10-7.86H681.39m0-1.5H18.53c-5.21,0-5.87,0-11.24,8.56-1.12,1.79-2.3,3.53-3.53,5.2C5,18.42,6.17,20.16,7.29,22c5.36,8.57,6,8.57,11.24,8.57H681.39c5.21,0,5.88,0,11.24-8.58,1.12-1.79,2.3-3.52,3.52-5.18-1.23-1.67-2.41-3.41-3.52-5.19C687.26,3,686.59,3,681.39,3h0Z"/></svg>